<?xml version="1.0" encoding="UTF-8"?>
<svg id="Layer_2" data-name="Layer 2" xmlns="http://www.w3.org/2000/svg" viewBox="0 0 866.18 866.18">
  <defs>
    <style>
      .cls-1 {
        fill: #011e36;
      }

      .cls-2 {
        fill: #2cabfe;
      }
    </style>
  </defs>
  <g id="_ëîé_1" data-name="‘ëîé_1">
    <g>
      <rect class="cls-1" x="0" width="866.18" height="866.18" rx="135.84" ry="135.84"/>
      <g>
        <path class="cls-2" d="M170.13,236.03v388.49h82.43v-122.02h61.01c73.58,0,133.23-59.65,133.23-133.23h0c0-73.58-59.65-133.23-133.23-133.23h-143.44ZM301.2,430.27h-48.65v-122.02h48.65c33.7,0,61.01,27.32,61.01,61.01h0c0,33.7-27.32,61.01-61.01,61.01Z"/>
        <path class="cls-2" d="M678.78,336.52v77.25c-24.69-15.44-46.62-20.04-60.12-21.6-14.11-1.63-40.14-4.63-49.01,9.19-.49.77-3.8,6.08-2.81,12.66,2.37,15.88,27.1,21.58,52.05,33.06,22.73,10.46,62.46,28.74,73.85,60.49,11.44,31.89-10.08,65.24-13.36,70.33-26.33,40.82-75.64,47.6-97.76,50.64-43.28,5.95-78.68-5.69-97.89-13.91v-71.46c38.29,11.5,67.06,15.31,85.23,16.71,15.75,1.21,32.99,1.34,38.81-8.31,2.29-3.8,2.05-7.86,1.96-8.92-1.01-11.59-15.63-18.95-30.59-26.26-52.48-25.63-51.28-24.02-56.6-27.81-7.41-5.27-28.58-20.79-37.99-49.15-2.48-7.47-9.92-31.04.17-56.53,9.02-22.8,26.99-34.35,36.68-40.57,58.62-37.66,143.76-10.35,157.4-5.79Z"/>
      </g>
    </g>
  </g>
</svg>