<?xml version="1.0" encoding="UTF-8"?>
<svg id="Layer_2" data-name="Layer 2" xmlns="http://www.w3.org/2000/svg" viewBox="0 0 866.18 866.18">
  <defs>
    <style>
      .cls-1 {
        fill: #99f;
      }

      .cls-2 {
        fill: #01005a;
      }
    </style>
  </defs>
  <g id="_ëîé_1" data-name="‘ëîé_1">
    <g>
      <rect class="cls-2" width="866.18" height="866.18" rx="135.84" ry="135.84"/>
      <path class="cls-1" d="M347.92,242.26h-104.28l-131.81,381.67h96.02l24.9-89.05h126.07l35.8,89.05h98.06l-144.75-381.67ZM255.02,461.17l40.64-141.57,45.38,141.57h-86.03Z"/>
      <path class="cls-1" d="M642.27,483.66c36.88,0,73.77,0,110.65,0,1.36-10.48,2.34-25.44.11-43.08-.05-.4-.11-.87-.17-1.29v-6.2h-.83c-3.08-21.49-10.96-58.4-42.77-85.39-32.96-27.96-71.9-28.55-84.69-28.1-50.5,1.78-82.47,33.48-92.43,43.35-19.92,19.74-28.7,39.77-30.72,44.53-11.67,27.65-10.65,51.74-9.76,68.33,1.03,19.24,2.7,50.3,22.13,80.67,34.16,53.4,96.66,63.16,110.79,64.93,47.65,5.99,84.86-10.98,100.15-19.11.54-20.47,1.08-40.94,1.63-61.42-34.48,10.59-62.64,9.35-79.1,7.25-20.65-2.62-40.36-5.12-56.34-21.08-15.15-15.12-18.85-34.21-19.95-43.41h71.32ZM624.57,379.47c29.61,0,53.62,24.01,53.62,53.62h-107.24c0-29.61,24.01-53.62,53.62-53.62Z"/>
    </g>
  </g>
</svg>