<?xml version="1.0" encoding="UTF-8"?>
<svg id="Layer_2" data-name="Layer 2" xmlns="http://www.w3.org/2000/svg" viewBox="0 0 866.18 866.18">
  <defs>
    <style>
      .cls-1 {
        fill: #9897fb;
      }

      .cls-2 {
        fill: #02005d;
      }
    </style>
  </defs>
  <g id="_ëîé_1" data-name="‘ëîé_1">
    <g>
      <rect class="cls-2" x="0" width="866.18" height="866.18" rx="135.84" ry="135.84"/>
      <g>
        <path class="cls-1" d="M181.17,238.85v388.49h82.43v-122.02h61.01c73.58,0,133.23-59.65,133.23-133.23h0c0-73.58-59.65-133.23-133.23-133.23h-143.44ZM312.25,433.09h-48.65v-122.02h48.65c33.7,0,61.01,27.32,61.01,61.01h0c0,33.7-27.32,61.01-61.01,61.01Z"/>
        <path class="cls-1" d="M623.84,337.93c-20.97,9.41-35.24,22.03-43.5,30.59v-35.34h-74.09v294.16h74.09v-177.93c5.89-7.64,22.98-27.71,53.02-36.7,22.67-6.79,42.04-4.07,51.66-2.04v-84.96c-12.67-.32-35.66.79-61.17,12.23Z"/>
      </g>
    </g>
  </g>
</svg>